<svg width="11" height="11" viewBox="0 0 11 11" fill="none" xmlns="http://www.w3.org/2000/svg">
<path d="M8.75 2.25H10.1042C10.176 2.25 10.2449 2.27853 10.2957 2.32933C10.3465 2.38012 10.375 2.449 10.375 2.52083C10.375 2.59266 10.3465 2.66155 10.2957 2.71234C10.2449 2.76313 10.176 2.79167 10.1042 2.79167H8.75V4.14583C8.75 4.21766 8.72147 4.28655 8.67068 4.33734C8.61988 4.38813 8.551 4.41667 8.47917 4.41667C8.40734 4.41667 8.33845 4.38813 8.28766 4.33734C8.23687 4.28655 8.20833 4.21766 8.20833 4.14583V2.79167H6.85417C6.78234 2.79167 6.71345 2.76313 6.66266 2.71234C6.61187 2.66155 6.58333 2.59266 6.58333 2.52083C6.58333 2.449 6.61187 2.38012 6.66266 2.32933C6.71345 2.27853 6.78234 2.25 6.85417 2.25H8.20833V0.895833C8.20833 0.824004 8.23687 0.755116 8.28766 0.704325C8.33845 0.653534 8.40734 0.625 8.47917 0.625C8.551 0.625 8.61988 0.653534 8.67068 0.704325C8.72147 0.755116 8.75 0.824004 8.75 0.895833V2.25ZM9.83333 5.22917C9.83333 5.15734 9.86187 5.08845 9.91266 5.03766C9.96345 4.98687 10.0323 4.95833 10.1042 4.95833C10.176 4.95833 10.2449 4.98687 10.2957 5.03766C10.3465 5.08845 10.375 5.15734 10.375 5.22917V9.02083C10.375 9.37998 10.2323 9.72442 9.97837 9.97837C9.72442 10.2323 9.37998 10.375 9.02083 10.375H1.97917C1.62002 10.375 1.27558 10.2323 1.02163 9.97837C0.767671 9.72442 0.625 9.37998 0.625 9.02083V1.97917C0.625 1.62002 0.767671 1.27558 1.02163 1.02163C1.27558 0.767671 1.62002 0.625 1.97917 0.625H5.77083C5.84266 0.625 5.91155 0.653534 5.96234 0.704325C6.01313 0.755116 6.04167 0.824004 6.04167 0.895833C6.04167 0.967663 6.01313 1.03655 5.96234 1.08734C5.91155 1.13813 5.84266 1.16667 5.77083 1.16667H1.97917C1.76368 1.16667 1.55702 1.25227 1.40464 1.40464C1.25227 1.55702 1.16667 1.76368 1.16667 1.97917V9.02083C1.16667 9.23632 1.25227 9.44298 1.40464 9.59536C1.55702 9.74773 1.76368 9.83333 1.97917 9.83333H9.02083C9.23632 9.83333 9.44298 9.74773 9.59536 9.59536C9.74773 9.44298 9.83333 9.23632 9.83333 9.02083V5.22917Z" fill="white"/>
</svg>
