<svg width="26" height="31" viewBox="0 0 26 31" fill="none" xmlns="http://www.w3.org/2000/svg">
<path d="M0.00976562 8H13V23H0.00976562V8Z" fill="#779EE9"/>
<path d="M13 8H25.9902V23H13V8Z" fill="#598EF3"/>
<path d="M13 15.4998L10.6562 22.9999L13 30.5L25.9902 22.9999L13 15.4998Z" fill="#2563EB"/>
<path d="M0.00976562 22.9999L13 30.5V15.4998L0.00976562 22.9999Z" fill="#598EF3"/>
<path d="M13 0.5L10.6562 8.00012L13 15.5002L25.9902 8.00012L13 0.5Z" fill="#779EE9"/>
<path d="M0.00976562 8.00012L13 15.5002V0.5L0.00976562 8.00012Z" fill="#C0CBD9"/>
<path d="M7.04102 12.06H13V18.9406H7.04102V12.06Z" fill="#BDD6F5"/>
<path d="M13 12.06H18.959V18.9406H13V12.06Z" fill="#2563EB"/>
<path d="M13 15.4998L11.9249 18.9403L13 22.3808L18.959 18.9403L13 15.4998Z" fill="#C0CBD9"/>
<path d="M7.04102 18.9403L13 22.3808V15.4998L7.04102 18.9403Z" fill="#2563EB"/>
<path d="M13 8.61922L11.9249 12.0597L13 15.5002L18.959 12.0597L13 8.61922Z" fill="#BDD6F5"/>
<path d="M7.04102 12.0597L13 15.5002V8.61922L7.04102 12.0597Z" fill="#D3E6FE"/>
</svg>
